{"title":"The Next Hit 2008 DvDRip XviD.Ac3.Feel-Free","uid":5834222,"size":1552481372,"categoryP":"video","categoryS":"movies","magnet":"?xt=urn:btih:5c89e34ef5b38579828f8162fad8721ab5559722&amp;dn=The+Next+Hit+2008+DvDRip+XviD.Ac3.Feel-Free&amp;tr=udp%3A%2F%2Ftracker.openbittorrent.com%3A80&amp;tr=udp%3A%2F%2Fopen.demonii.com%3A1337&amp;tr=udp%3A%2F%2Ftracker.coppersurfer.tk%3A6969&amp;tr=udp%3A%2F%2Fexodus.desync.com%3A6969","seeders":0,"leechers":0,"uploader":"neon","files":-1,"time":1284661610,"description":"Genre:Mystery\nLanguage: English\n &lt;a href=&quot; http://www.imdb.com/title/tt1098360/&quot; rel=&quot;nofollow&quot; target=&quot;_NEW&quot;&gt; http://www.imdb.com/title/tt1098360/&lt;/a&gt;\nSource:DVD\n\nGeneral\nComplete name :The.Next.Hit.2008.DvDRip.XviD.Ac3.Feel-Free\nFormat : AVI\nFormat/Info : Audio Video Interleave\nFile size : 1.45 GiB\nDuration : 1h 47mn\nOverall bit rate : 1 929 Kbps\nVideo #0\nID : 0\nFormat : MPEG-4 Visual\nFormat profile : AdvancedSimple@L5\nFormat settings, BVOP : Yes\nFormat settings, QPel : No\nFormat settings, GMC : No warppoints\nFormat settings, Matrix : Default (H.263)\nMuxing mode : Packed bitstream\nCodec ID : XVID\nCodec ID/Hint : XviD\nDuration : 1h 47mn\nBit rate : 1 661 Kbps\nWidth : 652 pixels\nHeight : 352 pixels\nDisplay aspect ratio : 1.852\nFrame rate : 29.970 fps\nResolution : 24 bits\nColorimetry : 4:2:0\nScan type : Progressive\nBits/(Pixel*Frame) : 0.241\nStream size : 1.24 GiB (86%)\nWriting library : XviD 1.2.1 (UTC 2008-12-04)\nAudio #1\nID : 1\nFormat : AC-3\nFormat/Info : Audio Coding 3\nCodec ID : 2000\nDuration : 1h 47mn\nBit rate mode : Constant\nBit rate : 256 Kbps\nChannel(s) : 6 channels\nChannel positions : Front: L C R, Surround: L R, LFE\nSampling rate : 48.0 KHz\nStream size : 196 MiB (13%)\nAlignment : Split accross interleaves\nInterleave, duration : 33 ms (1.00 video frame)\nInterleave, preload duration : 500 ms\n\nPlot\nThe Next Hit&quot; is a mystery suspense thriller about a record company that takes an unorthodox approach","torrent":{"xt":"urn:btih:5c89e34ef5b38579828f8162fad8721ab5559722","amp;dn":"The+Next+Hit+2008+DvDRip+XviD.Ac3.Feel-Free","amp;tr":["udp%3A%2F%2Ftracker.openbittorrent.com%3A80","udp%3A%2F%2Fopen.demonii.com%3A1337","udp%3A%2F%2Ftracker.coppersurfer.tk%3A6969","udp%3A%2F%2Fexodus.desync.com%3A6969"],"infoHash":"5c89e34ef5b38579828f8162fad8721ab5559722","infoHashBuffer":{"type":"Buffer","data":[92,137,227,78,245,179,133,121,130,143,129,98,250,216,114,26,181,85,151,34]},"announce":[],"urlList":[]}}